<?xml version="1.0" encoding="UTF-8" standalone="no"?>
<svg
   xmlns:dc="http://purl.org/dc/elements/1.1/"
   xmlns:cc="http://creativecommons.org/ns#"
   xmlns:rdf="http://www.w3.org/1999/02/22-rdf-syntax-ns#"
   xmlns:svg="http://www.w3.org/2000/svg"
   xmlns="http://www.w3.org/2000/svg"
   xmlns:sodipodi="http://sodipodi.sourceforge.net/DTD/sodipodi-0.dtd"
   xmlns:inkscape="http://www.inkscape.org/namespaces/inkscape"
   class="icon"
   width="64px"
   height="64.00px"
   viewBox="0 0 1024 1024"
   version="1.1"
   id="svg4"
   sodipodi:docname="qnav2.svg"
   inkscape:version="0.92.2 (5c3e80d, 2017-08-06)">
  <metadata
     id="metadata10">
    <rdf:RDF>
      <cc:Work
         rdf:about="">
        <dc:format>image/svg+xml</dc:format>
        <dc:type
           rdf:resource="http://purl.org/dc/dcmitype/StillImage" />
      </cc:Work>
    </rdf:RDF>
  </metadata>
  <defs
     id="defs8" />
  <sodipodi:namedview
     pagecolor="#ffffff"
     bordercolor="#666666"
     borderopacity="1"
     objecttolerance="10"
     gridtolerance="10"
     guidetolerance="10"
     inkscape:pageopacity="0"
     inkscape:pageshadow="2"
     inkscape:window-width="2560"
     inkscape:window-height="1361"
     id="namedview6"
     showgrid="false"
     inkscape:zoom="3.6875"
     inkscape:cx="32"
     inkscape:cy="32"
     inkscape:window-x="-9"
     inkscape:window-y="-9"
     inkscape:window-maximized="1"
     inkscape:current-layer="svg4" />
  <path
     fill="#0066ff"
     d="M512 8.704c-278.016 0-503.296 225.28-503.296 503.296s225.28 503.296 503.296 503.296 503.296-225.28 503.296-503.296-225.28-503.296-503.296-503.296zM352.768 316.416c18.432-32.768 55.808-49.152 93.184-40.96 32.256 7.168 61.44 35.84 60.928 66.048-0.512 11.264-13.312 22.016-20.48 32.256 40.96-7.68 82.432 0 122.88 35.84-52.736 4.096-77.824 41.472-110.592 69.632-15.872 13.312-34.816 34.816-54.784 2.048-2.048-3.584-12.288-3.584-18.432-2.56-31.744 4.608-51.2-13.312-50.688-45.056 0-9.728-3.584-21.504-10.24-28.16-24.064-27.136-29.184-58.368-11.776-89.088z m270.336 117.248c21.504 9.728 23.04 32.768 10.24 51.712-26.624 40.448-67.584 51.712-113.664 50.688 19.968-32.768 36.864-65.536 59.392-93.696 7.68-9.216 32.256-13.824 44.032-8.704z m-409.6 170.496c13.312-24.576 43.008-41.984 68.096-58.88 31.232-20.992 65.024-38.4 104.448-61.44 17.408 6.144 43.52 18.944 71.68 23.552 13.824 2.048 32.256-9.216 45.568-18.944 19.456-13.824 35.84-31.744 53.248-47.616-7.168 45.056-29.696 76.8-72.192 89.6-33.792 10.24-69.12 15.36-102.4 27.136-30.72 11.264-61.952 25.6-88.064 44.544-20.48 14.848-33.792 38.912-53.76 62.976-38.912 0.512-46.08-25.6-26.624-60.928z m41.984 144.384l-42.496-76.8c35.84 14.848 49.152 40.448 42.496 76.8z m16.384-3.584c46.08 14.336 90.624 20.48 131.072-9.216l-0.512 0.512 0.512-0.512c-24.064 4.608-48.64 14.336-71.68 11.776-20.48-2.048-45.568-13.312-57.856-28.672-23.04-29.696-20.992-65.536 8.192-91.648 23.552-20.992 50.688-39.424 79.872-51.712 95.744-39.424 191.488-27.648 287.232 9.216-94.208 32.768-174.592 86.016-246.784 151.552l55.296-22.528c-56.832 64.512-165.376 81.92-185.344 31.232z m466.432-20.48c-10.752 10.24-27.136 19.968-41.472 20.48-36.352 1.536-73.216-1.024-109.568-4.608-6.656-0.512-11.776-13.824-19.968-23.552-38.912 37.888-71.168-20.48-110.08-6.144l-3.072-7.168c23.04-15.36 45.568-31.232 69.632-45.056 4.608-2.56 14.848 3.072 22.016 5.12 19.456 5.12 40.96 18.432 57.344 13.824 44.544-12.8 82.432 11.776 123.904 13.824 23.04 0 28.672 16.896 11.264 33.28z m59.392-58.88c-2.56 29.696-21.504 34.816-48.128 20.48-9.216-5.12-19.968-7.68-30.72-8.704-41.472-4.096-79.872-29.696-124.416-12.288-11.776 4.608-30.208-8.704-45.568-13.824l-0.512-10.24 128.512-52.224 2.56-7.68-98.304-36.352c25.6-19.968 54.784-41.984 82.432-64.512 18.432-14.848 37.376-25.088 61.44-12.288 23.552 12.8 39.936 32.256 36.864 58.88-3.584 30.208 8.192 52.736 21.504 77.824 10.24 17.92 16.384 40.96 14.336 60.928z m-20.992-132.608c-9.728-70.144-58.88-96.256-108.032-76.8-16.896-20.48-32.256-41.984-50.688-60.928-10.752-11.264-25.6-23.04-39.936-25.6-37.376-6.656-57.856-22.016-64.512-62.976-6.144-35.328 8.704-66.048 44.032-55.296 35.84 10.24 71.168 14.848 107.008 20.992 32.768 5.632 48.128 36.352 46.08 72.704 66.56 12.8 103.424 45.568 109.568 95.232 5.12 46.08-8.704 76.288-43.52 92.672z"
     id="path2"
     style="fill:#0099ff;fill-opacity:1" />
</svg>
